# xmcd CD database file
#
# Track frame offsets:
#	150
#	14246
#	25294
#	37230
#	47903
#	58853
#	72936
#	86726
#	100688
#	114755
#	128239
#	143338
#	157500
#	172870
#	183157
#	197032
#	209720
#	223264
#
# Disc length: 3155 seconds
#
# Revision: 4
# Processed by: cddbd v1.5.2PL0 Copyright (c) Steve Scherf et al.
# Submitted via: CDex 1.51
#
DISCID=010c5112
DTITLE=Count Basie - Vol.05 - Basie Boogie
DYEAR=1941
DGENRE=Jazz
TTITLE0=Tune Town Shuffle
TTITLE1=I'm Tired Of Waiting For You
TTITLE2=One-Two-Three-O'Lairy
TTITLE3=Basie Boogie
TTITLE4=Fancy Meeting You
TTITLE5=Diggin' For Dex
TTITLE6=My Old Flame
TTITLE7=Fiesta In Blue
TTITLE8=Tom Thumb
TTITLE9=Take Me Back, Baby
TTITLE10=King Joe - Part I
TTITLE11=King Joe - Part II
TTITLE12=Moon Nocturne
TTITLE13=Something New
TTITLE14=I Struck A Match In The Dark
TTITLE15=Platterbrains
TTITLE16=All Of Me
TTITLE17=Feather Merchant
EXTD=YEAR: 1941
EXTT0=
EXTT1=
EXTT2=
EXTT3=
EXTT4=
EXTT5=
EXTT6=
EXTT7=
EXTT8=
EXTT9=
EXTT10=
EXTT11=
EXTT12=
EXTT13=
EXTT14=
EXTT15=
EXTT16=
EXTT17=
PLAYORDER=
